<?xml version="1.0" encoding="UTF-8" standalone="no"?>
<!-- Created with Inkscape (http://www.inkscape.org/) -->

<svg
   xmlns:dc="http://purl.org/dc/elements/1.1/"
   xmlns:cc="http://creativecommons.org/ns#"
   xmlns:rdf="http://www.w3.org/1999/02/22-rdf-syntax-ns#"
   xmlns:svg="http://www.w3.org/2000/svg"
   xmlns="http://www.w3.org/2000/svg"
   version="1.1"
   width="643.49072"
   height="129.19566"
   id="svg3644">
  <defs
     id="defs3646" />
  <g
     transform="translate(-33.828322,-403.89618)"
     id="layer1">
    <g
       transform="matrix(2.0094102,0,0,-2.0094102,209.345,459.57766)"
       id="g202">
      <path
         d="M 64.59375,1 C 29.471269,1 1,29.479307 1,64.59375 c 0,35.12449 28.471269,63.59375 63.59375,63.59375 28.941535,0 53.35842,-19.33138 61.0625,-45.78125 L 100.96875,53.0625 c -0.43001,-0.502353 -1.107264,-0.47914 -1.53125,0.03125 l -10.78125,12.84375 -9,-11.125 L 93.5,38.28125 c 0.419967,-0.506371 1.134496,-0.51039 1.5625,0 l 31.8125,39.25 c 0.87007,-4.171536 1.3125,-8.500722 1.3125,-12.9375 C 128.1875,29.479307 99.716231,1 64.59375,1 z m -3.75,36.90625 c 0.281317,-0.002 0.535998,0.119805 0.75,0.375 l 38.8125,47.90625 c 0.32552,0.385807 0.74862,1.119529 0.9375,1.59375 l 3.09375,7.84375 c 0.52847,1.344295 0.18036,1.534638 -0.75,0.4375 l -36.15625,-43 c -0.425995,-0.502353 -1.140524,-0.47914 -1.5625,0.03125 l -34.3125,40.875 c 0.269261,-0.212997 -3.990185,5.098161 -7.6875,1.59375 -3.9505,-3.743531 -2.973927,-10.747806 0,-14.3125 L 60.0625,38.28125 c 0.211993,-0.253186 0.499933,-0.372991 0.78125,-0.375 z m 233.4375,10.65625 c -2.02348,0 -3.375,1.444582 -3.375,3.5625 l 0,40.625 c 0,2.127965 1.35152,3.5625 3.375,3.5625 2.01745,0 3.375,-1.434535 3.375,-3.5625 l 0,-10.6875 c 2.14002,2.228436 11.875,12.40625 11.875,12.40625 1.28401,1.277985 2.01636,1.84375 3.59375,1.84375 1.60351,0 2.96875,-1.308561 2.96875,-2.84375 0,-1.290041 -0.38166,-2.12965 -1.46875,-3.21875 0,0 -10.50494,-10.351597 -13.1875,-13 1.20163,-0.938395 11.21875,-8.84375 11.21875,-8.84375 1.0891,-0.827877 1.59375,-1.726518 1.59375,-2.84375 0,-1.774309 -1.25472,-3.09375 -2.96875,-3.09375 -0.99265,0 -2.08829,0.588769 -3.46875,1.8125 0.0141,-0.01608 -7.1984,6.022397 -10.15625,8.5 l 0,-20.65625 c 0,-2.117918 -1.35755,-3.5625 -3.375,-3.5625 z m 63.65625,0 c -2.02549,0 -3.375,1.444582 -3.375,3.5625 l 0,40.625 c 0,2.127965 1.34951,3.5625 3.375,3.5625 2.02348,0 3.375,-1.434535 3.375,-3.5625 l 0,-40.625 c 0,-2.117918 -1.35152,-3.5625 -3.375,-3.5625 z m 208.78125,0 c -2.00941,0 -3.375,1.444582 -3.375,3.5625 l 0,40.625 c 0,2.127965 1.36559,3.5625 3.375,3.5625 2.02549,0 3.40625,-1.434535 3.40625,-3.5625 l 0,-40.625 c 0,-2.117918 -1.38076,-3.5625 -3.40625,-3.5625 z m 36.09375,0 c -2.01343,0 -3.375,1.444582 -3.375,3.5625 l 0,13.5 c -1.75823,-1.693933 -4.44272,-3.15625 -7.8125,-3.15625 -9.35983,0 -14.25,8.532137 -14.25,16.9375 0,8.413401 4.89017,16.90625 14.25,16.90625 3.49235,0 6.13596,-1.049972 7.90625,-3.03125 0.21099,1.822535 1.44264,3.03125 3.28125,3.03125 2.0295,0 3.375,-1.434535 3.375,-3.5625 l 0,-40.625 c 0,-2.117918 -1.3455,-3.5625 -3.375,-3.5625 z M 154.125,51.78125 c -2.07371,0 -3.375,1.500986 -3.375,3.90625 l 0,36.71875 c 0,2.41732 1.30129,3.90625 3.375,3.90625 2.09381,0 3.375,-1.48893 3.375,-3.90625 L 157.5,77 l 18.03125,0 0,15.40625 c 0,2.41732 1.29727,3.90625 3.375,3.90625 2.08376,0 3.375,-1.48893 3.375,-3.90625 l 0,-36.71875 c 0,-2.405264 -1.29124,-3.90625 -3.375,-3.90625 -2.07773,0 -3.375,1.500986 -3.375,3.90625 l 0,15.28125 -18.03125,0 0,-15.28125 c 0,-2.405264 -1.28119,-3.90625 -3.375,-3.90625 z m 299.125,0 c -2.19026,0 -3.96875,1.766436 -3.96875,3.96875 0,2.186238 1.77849,3.96875 3.96875,3.96875 2.18423,0 3.96875,-1.782512 3.96875,-3.96875 0,-2.202314 -1.78452,-3.96875 -3.96875,-3.96875 z m 31.84375,0 c -1.51108,0 -4.11835,0.578948 -4.84375,4.59375 l -5.78125,34 c -0.18286,1.071016 -0.3125,1.85297 -0.3125,2.5 0,2.117918 1.2435,3.4375 3.21875,3.4375 2.10385,0 3.28811,-0.977216 3.53125,-2.90625 0,0 3.72929,-25.590043 4.46875,-30.8125 1.50907,5.081798 9.21875,31.03125 9.21875,31.03125 0.57469,1.836601 1.62078,2.6875 3.375,2.6875 1.75422,0 2.86683,-0.833715 3.4375,-2.65625 0,-0.01407 6.7099,-22.695316 9.1875,-31.0625 0.75152,5.222457 4.46875,30.8125 4.46875,30.8125 0.25118,1.923006 1.43142,2.90625 3.53125,2.90625 1.97324,0 3.21875,-1.319582 3.21875,-3.4375 0,-0.64703 -0.12161,-1.422956 -0.3125,-2.5 l -5.78125,-34 c -0.72942,-4.014802 -3.34272,-4.59375 -4.84375,-4.59375 -2.4555,0 -3.84403,1.014635 -4.53125,3.28125 0,0.006 -6.26401,21.524853 -8.34375,28.65625 -1.15742,-3.962557 -8.375,-28.65625 -8.375,-28.65625 -0.6832,-2.272643 -2.08178,-3.28125 -4.53125,-3.28125 z M 217,61.40625 c -1.31014,0 -2.17939,1.058622 -2.46875,1.40625 0.008,0 -1.26948,1.556269 -1.96875,2.40625 -2.34096,-1.780337 -5.18094,-2.75 -8.34375,-2.75 -9.62708,0 -14.6875,8.532137 -14.6875,16.9375 0,3.912322 1.04242,7.46274 2.875,10.1875 -0.52847,0.628945 -2.34375,2.8125 -2.34375,2.8125 -0.78568,0.894188 -1.25,1.60803 -1.25,2.5625 0,1.316164 1.18605,2.40625 2.5625,2.40625 0.97255,0 1.79782,-0.45379 2.53125,-1.40625 -0.0221,0.01608 1.28063,-1.594657 2,-2.46875 2.30881,1.810479 5.15572,2.8125 8.3125,2.8125 9.62909,0 14.65625,-8.492849 14.65625,-16.90625 0,-3.751569 -0.98996,-7.282101 -2.8125,-10.25 0.52647,-0.626936 2.5,-3 2.5,-3 0.59679,-0.735444 1.03125,-1.318951 1.03125,-2.34375 0,-1.360371 -1.13492,-2.40625 -2.59375,-2.40625 z m 22.4375,1.0625 c -9.62708,0 -14.65625,8.532137 -14.65625,16.9375 0,8.413401 5.02917,16.90625 14.65625,16.90625 2.94379,0 5.51429,-1.149958 7.375,-3.1875 l 0,0.65625 c 0,2.694619 -0.75455,8.96875 -7.84375,8.96875 -3.20099,0 -5.29491,-1.27966 -6.96875,-2.3125 -1.19761,-0.731425 -2.22361,-1.375 -3.375,-1.375 -2.03754,0 -2.96875,1.61524 -2.96875,3.21875 0,3.3517 7.28191,6.5 12.90625,6.5 9.13076,0 15.03125,-6.21466 15.03125,-15.84375 l 0,-27.15625 c 0,-2.14605 -1.66548,-3.3125 -3.21875,-3.3125 -2.04759,0 -3.3513,1.182593 -3.5,3.03125 -1.78436,-1.641688 -4.56002,-3.03125 -7.4375,-3.03125 z m 32.625,0 c -5.58415,0 -11.5,3.402065 -11.5,9.6875 0,5.296805 5.29999,7.498419 10,9.4375 3.53053,1.480935 6.84375,2.872659 6.84375,5.1875 0,1.726083 -1.99205,3.5 -5.34375,3.5 -3.24118,0 -5.18356,-1.360456 -6.71875,-2.4375 -1.11321,-0.769604 -2.04415,-1.4375 -3.1875,-1.4375 -1.62561,0 -2.90625,1.398016 -2.90625,3.15625 0,3.124633 5.49762,6.75 12.625,6.75 6.11464,0 12.3125,-3.237992 12.3125,-10.5 0,-5.672565 -5.81606,-7.933493 -10.5,-9.75 -3.27735,-1.265928 -6.375,-2.448876 -6.375,-4.34375 0,-2.371104 2.55572,-3.21875 4.75,-3.21875 2.72476,0 4.08967,1.049341 5.28125,1.9375 0.87811,0.665115 1.70351,1.28125 2.875,1.28125 2.14806,0 3.125,-1.50971 3.125,-2.90625 0,-3.878162 -6.68372,-6.34375 -11.28125,-6.34375 z m 60.84375,0 c -9.62708,0 -14.65625,8.532137 -14.65625,16.9375 0,8.413401 5.02917,16.90625 14.65625,16.90625 9.62507,0 14.6875,-8.492849 14.6875,-16.90625 0,-8.405363 -5.06243,-16.9375 -14.6875,-16.9375 z m 50.21875,0 c -9.822,0 -14.96875,8.530128 -14.96875,16.9375 0,7.810577 3.97922,16.90625 15.25,16.90625 6.1488,0 13.4375,-3.905233 13.4375,-7.21875 0,-2.005391 -1.36822,-3.09375 -2.65625,-3.09375 -0.95849,0 -1.75915,0.618353 -2.6875,1.34375 -1.58342,1.239806 -3.74719,2.9375 -8.03125,2.9375 -4.86679,0 -8.17448,-3.237006 -8.5,-8.09375 l 18.84375,0 c 2.50373,0 3.6875,-1.139151 3.6875,-3.5625 0,-7.951236 -5.37485,-16.15625 -14.375,-16.15625 z m 24.46875,0 c -2.01745,0 -3.375,1.434535 -3.375,3.5625 l 0,26.71875 c 0,2.127965 1.35755,3.5625 3.375,3.5625 2.02348,0 3.375,-1.434535 3.375,-3.5625 l 0,-17.21875 c 0,-4.840669 3.2952,-7.03125 6.5625,-7.03125 3.25324,0 6.53125,2.190581 6.53125,7.03125 l 0,17.21875 c 0,2.127965 1.35755,3.5625 3.375,3.5625 2.02147,0 3.40625,-1.434535 3.40625,-3.5625 l 0,-17.5 c 0,-8.82332 -5.92985,-12.78125 -11.78125,-12.78125 -3.17688,0 -5.96488,1.194373 -8.125,3.25 -0.13664,-1.929034 -1.43481,-3.25 -3.34375,-3.25 z m 45.65625,0 c -2.02549,0 -3.375,1.434535 -3.375,3.5625 l 0,26.71875 c 0,2.127965 1.34951,3.5625 3.375,3.5625 2.02147,0 3.375,-1.434535 3.375,-3.5625 l 0,-26.71875 c 0,-2.127965 -1.35353,-3.5625 -3.375,-3.5625 z m 88.46875,0 c -9.62708,0 -14.65625,8.532137 -14.65625,16.9375 0,8.413401 5.02917,16.90625 14.65625,16.90625 9.62507,0 14.65625,-8.492849 14.65625,-16.90625 0,-8.405363 -5.03118,-16.9375 -14.65625,-16.9375 z m 86.40625,0 c -9.82803,0 -14.96875,8.530128 -14.96875,16.9375 0,7.810577 3.98927,16.90625 15.25,16.90625 6.1488,0 13.4375,-3.905233 13.4375,-7.21875 0,-2.005391 -1.38741,-3.09375 -2.6875,-3.09375 -0.94442,0 -1.73393,0.618353 -2.65625,1.34375 -1.58342,1.239806 -3.7492,2.9375 -8.03125,2.9375 -4.87282,0 -8.1805,-3.237006 -8.5,-8.09375 l 18.84375,0 c 2.51578,0 3.6875,-1.139151 3.6875,-3.5625 0,-7.951236 -5.38892,-16.15625 -14.375,-16.15625 z M 204.21875,68.5 c 1.73412,0 3.20351,0.556686 4.375,1.53125 -0.82185,1.000686 -10.05946,12.16229 -11.5625,13.96875 -0.44006,-1.404578 -0.75,-2.92594 -0.75,-4.59375 0,-5.019507 2.09414,-10.90625 7.9375,-10.90625 z m 35.21875,0 c 5.83935,0 7.90625,5.886743 7.90625,10.90625 0,5.029554 -2.0669,10.875 -7.90625,10.875 -5.83734,0 -7.90625,-5.845446 -7.90625,-10.875 0,-5.019507 2.06891,-10.90625 7.90625,-10.90625 z m 93.46875,0 c 5.83734,0 7.90625,5.886743 7.90625,10.90625 0,5.029554 -2.06891,10.875 -7.90625,10.875 C 327.06289,90.28125 325,84.435804 325,79.40625 325,74.386743 327.06289,68.5 332.90625,68.5 z m 50.1875,0 c 5.23853,0 7.33253,4.666113 7.59375,8.21875 l -15.71875,0 c 0.25118,-2.728779 1.57633,-8.449832 8.125,-8.21875 z m 158.625,0 c 5.84136,0 7.90625,5.886743 7.90625,10.90625 0,5.029554 -2.06489,10.875 -7.90625,10.875 -5.83935,0 -7.90625,-5.845446 -7.90625,-10.875 0,-5.019507 2.0669,-10.90625 7.90625,-10.90625 z m 50.34375,0 c 5.83533,0 7.90625,5.886743 7.90625,10.90625 0,5.029554 -2.07092,10.875 -7.90625,10.875 -5.83734,0 -7.90625,-5.845446 -7.90625,-10.875 0,-5.019507 2.06891,-10.90625 7.90625,-10.90625 z m 36.03125,0 c 5.24054,0 7.33855,4.666113 7.59375,8.21875 l -15.71875,0 c 0.25319,-2.728779 1.57231,-8.459879 8.125,-8.21875 z M 211.375,74.78125 c 0.44006,1.374437 0.75,2.894898 0.75,4.625 0,5.029554 -2.0669,10.875 -7.90625,10.875 -1.72809,0 -3.23476,-0.550658 -4.40625,-1.53125 0.82788,-1.000686 10.06951,-12.170328 11.5625,-13.96875 z"
         transform="matrix(0.49765847,0,0,-0.49765847,-87.347361,27.71036)"
         id="path204"
         style="fill:lightgrey;fill-opacity:1;fill-rule:nonzero;stroke:none" />
    </g>
    <g
       transform="matrix(2.0094102,0,0,-2.0094102,294.38263,476.03774)"
       id="g206" />
    <g
       transform="matrix(2.0094102,0,0,-2.0094102,324.74401,456.00975)"
       id="g210" />
    <g
       transform="matrix(2.0094102,0,0,-2.0094102,388.38083,456.00975)"
       id="g214" />
    <g
       transform="matrix(2.0094102,0,0,-2.0094102,452.90219,466.37047)"
       id="g218" />
    <g
       transform="matrix(2.0094102,0,0,-2.0094102,483.09598,459.64939)"
       id="g222" />
    <g
       transform="matrix(2.0094102,0,0,-2.0094102,483.68876,469.92653)"
       id="g226" />
    <g
       transform="matrix(2.0094102,0,0,-2.0094102,540.17047,458.94409)"
       id="g230" />
    <g
       transform="matrix(2.0094102,0,0,-2.0094102,597.18367,456.00975)"
       id="g234" />
    <g
       transform="matrix(2.0094102,0,0,-2.0094102,134.24992,490.09115)"
       id="g238" />
    <g
       transform="matrix(2.0094102,0,0,-2.0094102,238.03416,494.16463)"
       id="g254" />
    <g
       transform="matrix(2.0094102,0,0,-2.0094102,273.27016,494.16463)"
       id="g258" />
    <g
       transform="matrix(2.0094102,0,0,-2.0094102,366.74371,494.16463)"
       id="g262" />
    <g
       transform="matrix(2.0094102,0,0,-2.0094102,416.9231,472.40151)"
       id="g266" />
    <g
       transform="matrix(2.0094102,0,0,-2.0094102,575.54674,494.16463)"
       id="g270" />
    <g
       transform="matrix(2.0094102,0,0,-2.0094102,625.87966,494.16463)"
       id="g274" />
    <g
       transform="matrix(2.0094102,0,0,-2.0094102,661.91159,472.40151)"
       id="g278" />
  </g>
</svg>
